<?xml version="1.0" encoding="UTF-8"?>
<!DOCTYPE svg PUBLIC "-//W3C//DTD SVG 1.1//EN" "http://www.w3.org/Graphics/SVG/1.1/DTD/svg11.dtd">
<!-- Creator: CorelDRAW 2021 (64-Bit) -->
<svg xmlns="http://www.w3.org/2000/svg" xml:space="preserve" width="46.9258mm" height="32.4185mm" version="1.1" style="shape-rendering:geometricPrecision; text-rendering:geometricPrecision; image-rendering:optimizeQuality; fill-rule:evenodd; clip-rule:evenodd"
viewBox="0 0 1980.49 1368.22"
 xmlns:xlink="http://www.w3.org/1999/xlink"
 xmlns:xodm="http://www.corel.com/coreldraw/odm/2003">
 <defs>
  <style type="text/css">
   <![CDATA[
    .fil5 {fill:none}
    .fil0 {fill:#EBECEC}
    .fil2 {fill:#8F1A51}
    .fil1 {fill:#374F8E}
    .fil4 {fill:#2B2A29;fill-rule:nonzero}
    .fil3 {fill:#374F8E;fill-rule:nonzero}
   ]]>
  </style>
 </defs>
 <g id="Layer_x0020_1">
  <metadata id="CorelCorpID_0Corel-Layer"/>
  <g id="_2329962768320">
   <path class="fil0" d="M1009.61 63.7l360.04 438.23c-15.54,4.96 -30.76,11.47 -45.48,20.55 -83.16,43 -130.24,60.44 -257.46,80.2 -112.31,16.77 -137.25,-11.44 -196.51,-22.34 118.57,89.88 176.42,119.21 326.58,98.94 85.93,-25.72 122.31,-63.36 199.01,-83.24 14.56,-3.09 29.17,-6.11 44.75,-7.83l222.39 270.68 -1306.65 0 186.27 -226.72c45.39,-3.84 103.65,-14.51 131.79,-31.87 83.16,-43 130.24,-60.43 257.46,-80.19 112.31,-16.77 137.25,11.44 196.51,22.34 -118.57,-89.88 -176.42,-119.21 -326.58,-98.94 -71.4,21.37 -108.58,50.96 -163.12,71.76l371 -451.57z"/>
   <path class="fil1" d="M990.25 90.8l360.04 438.23c-15.54,4.95 -30.76,11.46 -45.48,20.55 -83.16,43 -130.24,60.43 -257.46,80.19 -112.31,16.77 -137.25,-11.44 -196.51,-22.34 118.57,89.88 176.42,119.21 326.58,98.94 85.92,-25.71 122.31,-63.36 199.01,-83.24 14.56,-3.09 29.16,-6.1 44.74,-7.83l222.39 270.68 -1306.65 0 186.27 -226.72c45.38,-3.84 103.65,-14.51 131.78,-31.87 83.16,-43 130.24,-60.44 257.46,-80.2 112.31,-16.77 137.25,11.44 196.51,22.34 -118.57,-89.88 -176.42,-119.21 -326.58,-98.94 -71.4,21.37 -108.58,50.96 -163.13,71.76l371 -451.57z"/>
   <path class="fil2" d="M411.09 1117.03l-42.22 0 -16.77 -36.25 -76.79 0 -15.84 36.25 -41.14 0 74.82 -159.49 41.02 0 76.92 159.49zm-71.42 -63.09l-26.48 -59.2 -25.94 59.2 52.42 0zm92.49 63.09l0 -159.49 38.77 0 0 70.81 78.36 -70.81 52.15 0 -72.32 62.12 76.26 97.37 -50.18 0 -52.78 -74.86 -31.48 26.66 0 48.2 -38.77 0zm366.51 0l-42.22 0 -16.77 -36.25 -76.79 0 -15.84 36.25 -41.14 0 74.82 -159.49 41.02 0 76.92 159.49zm-71.42 -63.09l-26.48 -59.2 -25.94 59.2 52.42 0zm92.35 63.09l0 -159.49 37.74 0 78.62 106.5 0 -106.5 36.05 0 0 159.49 -38.95 0 -77.42 -104.01 0 104.01 -36.05 0zm193.92 0l0 -159.49 38.77 0 0 70.81 78.36 -70.81 52.15 0 -72.32 62.12 76.25 97.37 -50.17 0 -52.78 -74.86 -31.48 26.66 0 48.2 -38.77 0zm183.46 -51.88l37.74 -3.08c2.24,10.55 6.85,18.27 13.82,23.21 6.94,4.9 16.28,7.39 28.09,7.39 12.48,0 21.92,-2.19 28.22,-6.61 6.36,-4.38 9.53,-9.5 9.53,-15.38 0,-3.79 -1.34,-6.98 -4.02,-9.61 -2.64,-2.67 -7.29,-4.98 -13.96,-6.91 -4.52,-1.34 -14.89,-3.64 -31.04,-6.98 -20.79,-4.27 -35.37,-9.54 -43.74,-15.78 -11.81,-8.77 -17.71,-19.46 -17.71,-32.09 0,-8.12 2.77,-15.7 8.32,-22.8 5.55,-7.05 13.55,-12.44 23.98,-16.15 10.46,-3.68 23.03,-5.53 37.79,-5.53 24.15,0 42.26,4.38 54.48,13.14 12.16,8.8 18.56,20.5 19.18,35.17l-38.77 1.41c-1.65,-8.2 -5.23,-14.11 -10.69,-17.68 -5.45,-3.6 -13.63,-5.38 -24.55,-5.38 -11.27,0 -20.13,1.89 -26.48,5.75 -4.12,2.45 -6.17,5.76 -6.17,9.88 0,3.79 1.92,7.02 5.77,9.69 4.87,3.42 16.77,6.98 35.64,10.66 18.87,3.71 32.83,7.53 41.87,11.47 9.03,3.98 16.1,9.36 21.24,16.23 5.1,6.87 7.65,15.33 7.65,25.4 0,9.13 -3.04,17.71 -9.17,25.66 -6.12,7.98 -14.76,13.92 -25.94,17.79 -11.18,3.9 -25.13,5.83 -41.82,5.83 -24.28,0 -42.93,-4.64 -55.94,-13.96 -13.02,-9.32 -20.8,-22.91 -23.31,-40.74zm188.91 51.88l0 -159.49 38.82 0 0 62.75 75.99 0 0 -62.75 38.78 0 0 159.49 -38.78 0 0 -69.74 -75.99 0 0 69.74 -38.82 0zm366.91 0l-42.21 0 -16.78 -36.25 -76.79 0 -15.84 36.25 -41.15 0 74.82 -159.49 41.02 0 76.92 159.49zm-71.42 -63.09l-26.48 -59.2 -25.94 59.2 52.42 0z"/>
   <path class="fil3" d="M170.58 1266.92l0 36.16 -20.78 0 0 -102.83 35.03 0c10.17,0 18.29,3.16 24.34,9.47 6.05,6.29 9.06,14.49 9.06,24.56 0,10.07 -2.99,18.03 -8.96,23.89 -5.98,5.83 -14.27,8.75 -24.85,8.75l-13.83 0zm0 -17.35l14.25 0c3.98,0 7.01,-1.3 9.18,-3.88 2.17,-2.58 3.25,-6.34 3.25,-11.26 0,-5.11 -1.11,-9.18 -3.33,-12.22 -2.19,-3.01 -5.16,-4.55 -8.89,-4.6l-14.46 0 0 31.96z"/>
   <path id="_1" class="fil3" d="M227.86 1262.41c0,-11.57 2.75,-20.66 8.19,-27.26 5.47,-6.58 13.02,-9.88 22.69,-9.88 9.74,0 17.33,3.3 22.8,9.88 5.47,6.61 8.2,15.74 8.2,27.41l0 4.87c0,11.64 -2.7,20.73 -8.12,27.29 -5.42,6.53 -12.99,9.81 -22.73,9.81 -9.81,0 -17.43,-3.28 -22.85,-9.86 -5.45,-6.56 -8.17,-15.69 -8.17,-27.36l0 -4.89zm20.05 5.04c0,13.71 3.66,20.58 10.97,20.58 6.72,0 10.34,-5.74 10.87,-17.19l0.07 -8.44c0,-7.01 -0.96,-12.2 -2.89,-15.57 -1.95,-3.4 -4.68,-5.09 -8.2,-5.09 -3.4,0 -6.05,1.69 -7.96,5.09 -1.9,3.38 -2.87,8.56 -2.87,15.57l0 5.04z"/>
   <polygon id="_2" class="fil3" points="357.77,1269.54 364.62,1226.71 383.76,1226.71 367.95,1303.07 351.34,1303.07 340.54,1258.89 329.74,1303.07 313.06,1303.07 297.25,1226.71 316.46,1226.71 323.23,1269.62 333.41,1226.71 347.6,1226.71 "/>
   <path id="_3" class="fil3" d="M424.55 1304.52c-10.27,0 -18.27,-3.06 -24.03,-9.18 -5.74,-6.12 -8.61,-14.87 -8.61,-26.28l0 -6.07c0,-12.05 2.63,-21.36 7.9,-27.91 5.28,-6.53 12.82,-9.81 22.68,-9.81 9.59,0 16.83,3.06 21.67,9.21 4.85,6.15 7.33,15.23 7.42,27.26l0 9.81 -39.77 0c0.29,5.71 1.54,9.88 3.74,12.53 2.22,2.63 5.64,3.95 10.25,3.95 6.7,0 12.27,-2.31 16.75,-6.96l7.83 12.07c-2.46,3.4 -6,6.15 -10.68,8.24 -4.65,2.1 -9.71,3.14 -15.16,3.14zm-12.59 -46.86l19.98 0 0 -1.86c-0.1,-4.6 -0.84,-8.1 -2.27,-10.48 -1.4,-2.39 -3.86,-3.57 -7.33,-3.57 -3.49,0 -6.03,1.25 -7.59,3.79 -1.59,2.51 -2.51,6.56 -2.8,12.13z"/>
   <path id="_4" class="fil3" d="M500.6 1245.92l-6.66 -0.55c-5.44,0 -9.16,2.41 -11.09,7.21l0 50.5 -20.06 0 0 -76.37 18.87 0 0.56 8.27c3.16,-6.48 7.52,-9.71 13.06,-9.71 2.27,0 4.1,0.31 5.52,0.92l-0.22 19.74z"/>
   <path id="_5" class="fil3" d="M580.45 1303.07c-0.58,-1.18 -1.14,-3.13 -1.71,-5.9 -3.57,4.89 -8.41,7.35 -14.54,7.35 -6.41,0 -11.71,-2.12 -15.93,-6.36 -4.22,-4.24 -6.31,-9.74 -6.31,-16.49 0,-8 2.55,-14.2 7.66,-18.58 5.11,-4.39 12.46,-6.63 22.06,-6.73l6.07 0 0 -6.12c0,-3.42 -0.58,-5.83 -1.76,-7.23 -1.18,-1.42 -2.89,-2.12 -5.16,-2.12 -4.99,0 -7.47,2.89 -7.47,8.68l-20.01 0c0,-7.04 2.65,-12.85 7.96,-17.43 5.3,-4.58 12,-6.87 20.1,-6.87 8.36,0 14.85,2.17 19.45,6.53 4.58,4.36 6.87,10.58 6.87,18.68l0 35.94c0.1,6.58 1.03,11.74 2.84,15.45l0 1.21 -20.13 0zm-11.81 -14.17c2.22,0 4.1,-0.46 5.66,-1.35 1.54,-0.89 2.7,-1.98 3.45,-3.21l0 -15.98 -4.79 0c-3.4,0 -6.05,1.08 -8.01,3.28 -1.98,2.17 -2.94,5.09 -2.94,8.73 0,5.69 2.22,8.53 6.63,8.53z"/>
   <path id="_6" class="fil3" d="M630.47 1226.71l0.55 7.52c4.53,-5.98 10.44,-8.96 17.74,-8.96 13.14,0 19.89,9.21 20.27,27.6l0 50.21 -20.06 0 0 -48.69c0,-4.31 -0.65,-7.47 -1.95,-9.42 -1.3,-1.95 -3.57,-2.92 -6.82,-2.92 -3.61,0 -6.44,1.86 -8.46,5.57l0 55.47 -20.06 0 0 -76.37 18.78 0z"/>
   <path id="_7" class="fil3" d="M680.73 1262.55c0,-12.51 2.09,-21.86 6.34,-28.03 4.24,-6.17 10.41,-9.26 18.51,-9.26 5.88,0 10.77,2.53 14.68,7.62l0 -38.28 20.13 0 0 108.5 -18.15 0 -0.92 -7.76c-4.09,6.12 -9.37,9.18 -15.81,9.18 -8,0 -14.13,-3.06 -18.32,-9.18 -4.22,-6.12 -6.39,-15.11 -6.46,-26.97l0 -5.81zm20.05 5.06c0,7.52 0.8,12.8 2.39,15.79 1.61,2.99 4.31,4.48 8.12,4.48 3.95,0 6.94,-1.76 8.96,-5.31l0 -34.9c-1.98,-3.76 -4.94,-5.64 -8.89,-5.64 -3.66,0 -6.36,1.49 -8.05,4.46 -1.69,2.96 -2.53,8.24 -2.53,15.81l0 5.31z"/>
   <polygon id="_8" class="fil3" points="811.07,1303.07 790.31,1303.07 790.31,1200.24 811.07,1200.24 "/>
   <path id="_9" class="fil3" d="M845.8 1226.71l0.55 7.52c4.53,-5.98 10.44,-8.96 17.74,-8.96 13.14,0 19.89,9.21 20.27,27.6l0 50.21 -20.06 0 0 -48.69c0,-4.31 -0.65,-7.47 -1.95,-9.42 -1.3,-1.95 -3.57,-2.92 -6.82,-2.92 -3.61,0 -6.44,1.86 -8.46,5.57l0 55.47 -20.06 0 0 -76.37 18.78 0z"/>
   <path id="_10" class="fil3" d="M903.32 1303.07l0 -61.32 -9.23 0 0 -15.04 9.23 0 0 -6.85c0.05,-8.43 2.29,-14.99 6.68,-19.67 4.41,-4.7 10.48,-7.04 18.25,-7.04 2.36,0 5.38,0.49 9.04,1.42l-0.12 15.98c-1.37,-0.41 -2.99,-0.63 -4.87,-0.63 -5.96,0 -8.92,3.52 -8.92,10.58l0 6.19 11.93 0 0 15.04 -11.93 0 0 61.32 -20.06 0z"/>
   <path id="_11" class="fil3" d="M983.85 1245.92l-6.66 -0.55c-5.44,0 -9.16,2.41 -11.09,7.21l0 50.5 -20.06 0 0 -76.37 18.87 0 0.56 8.27c3.16,-6.48 7.52,-9.71 13.06,-9.71 2.27,0 4.1,0.31 5.52,0.92l-0.22 19.74z"/>
   <path id="_12" class="fil3" d="M1028.25 1303.07c-0.58,-1.18 -1.14,-3.13 -1.71,-5.9 -3.57,4.89 -8.41,7.35 -14.54,7.35 -6.41,0 -11.71,-2.12 -15.93,-6.36 -4.22,-4.24 -6.31,-9.74 -6.31,-16.49 0,-8 2.55,-14.2 7.66,-18.58 5.11,-4.39 12.46,-6.63 22.06,-6.73l6.07 0 0 -6.12c0,-3.42 -0.58,-5.83 -1.76,-7.23 -1.18,-1.42 -2.89,-2.12 -5.16,-2.12 -4.99,0 -7.47,2.89 -7.47,8.68l-20.01 0c0,-7.04 2.65,-12.85 7.96,-17.43 5.3,-4.58 12,-6.87 20.1,-6.87 8.36,0 14.85,2.17 19.45,6.53 4.58,4.36 6.87,10.58 6.87,18.68l0 35.94c0.1,6.58 1.03,11.74 2.84,15.45l0 1.21 -20.13 0zm-11.81 -14.17c2.22,0 4.1,-0.46 5.66,-1.35 1.54,-0.89 2.7,-1.98 3.45,-3.21l0 -15.98 -4.79 0c-3.4,0 -6.05,1.08 -8.01,3.28 -1.98,2.17 -2.94,5.09 -2.94,8.73 0,5.69 2.22,8.53 6.63,8.53z"/>
   <path id="_13" class="fil3" d="M1093.81 1282.63c0,-1.71 -0.82,-3.28 -2.44,-4.7 -1.64,-1.45 -5.25,-3.38 -10.85,-5.83 -8.24,-3.35 -13.91,-6.8 -17,-10.39 -3.09,-3.57 -4.63,-8.03 -4.63,-13.35 0,-6.68 2.44,-12.2 7.26,-16.56 4.82,-4.36 11.21,-6.53 19.16,-6.53 8.39,0 15.09,2.17 20.13,6.51 5.04,4.31 7.57,10.15 7.57,17.43l-19.98 0c0,-6.22 -2.6,-9.33 -7.79,-9.33 -2.12,0 -3.86,0.65 -5.23,1.98 -1.35,1.33 -2.03,3.16 -2.03,5.52 0,1.69 0.75,3.18 2.24,4.48 1.52,1.3 5.06,3.16 10.68,5.55 8.15,3.01 13.89,6.39 17.26,10.07 3.37,3.69 5.04,8.49 5.04,14.37 0,6.85 -2.55,12.32 -7.69,16.46 -5.14,4.15 -11.86,6.22 -20.2,6.22 -5.59,0 -10.53,-1.08 -14.82,-3.28 -4.29,-2.19 -7.64,-5.25 -10.07,-9.16 -2.41,-3.91 -3.62,-8.12 -3.62,-12.63l18.99 0c0.1,3.47 0.89,6.1 2.44,7.83 1.52,1.76 4.03,2.63 7.52,2.63 5.35,0 8.05,-2.44 8.05,-7.28z"/>
   <path id="_14" class="fil3" d="M1148.89 1207.91l0 18.8 10.24 0 0 15.04 -10.24 0 0 37.94c0,3.01 0.41,5.09 1.23,6.22 0.84,1.13 2.41,1.68 4.77,1.68 1.93,0 3.52,-0.17 4.72,-0.51l-0.12 15.52c-3.4,1.28 -7.07,1.91 -11.02,1.91 -12.92,0 -19.43,-7.4 -19.57,-22.18l0 -40.59 -8.82 0 0 -15.04 8.82 0 0 -18.8 19.98 0z"/>
   <path id="_15" class="fil3" d="M1207.85 1245.92l-6.66 -0.55c-5.44,0 -9.16,2.41 -11.09,7.21l0 50.5 -20.06 0 0 -76.37 18.87 0 0.56 8.27c3.16,-6.48 7.52,-9.71 13.06,-9.71 2.27,0 4.1,0.31 5.52,0.92l-0.22 19.74z"/>
   <path id="_16" class="fil3" d="M1255.6 1296.1c-4.14,5.62 -9.72,8.42 -16.68,8.42 -7.01,0 -12.32,-2.41 -15.96,-7.23 -3.62,-4.82 -5.42,-11.86 -5.42,-21.09l0 -49.49 19.98 0 0 50.02c0.09,7.44 2.55,11.16 7.4,11.16 4.58,0 7.88,-1.98 9.91,-5.93l0 -55.25 20.13 0 0 76.37 -18.8 0 -0.55 -6.97z"/>
   <path id="_17" class="fil3" d="M1316.85 1288.03c5.79,0 8.73,-3.81 8.82,-11.42l18.78 0c-0.09,8.34 -2.65,15.09 -7.69,20.22 -5.04,5.13 -11.55,7.69 -19.5,7.69 -9.83,0 -17.35,-3.06 -22.54,-9.18 -5.16,-6.12 -7.81,-15.14 -7.9,-27.04l0 -6.08c0,-12.03 2.55,-21.19 7.66,-27.48 5.11,-6.31 12.65,-9.47 22.63,-9.47 8.44,0 15.06,2.6 19.91,7.81 4.87,5.21 7.33,12.59 7.42,22.15l-18.78 0c-0.05,-4.34 -0.77,-7.66 -2.12,-9.98 -1.38,-2.34 -3.64,-3.5 -6.77,-3.5 -3.49,0 -5.98,1.25 -7.5,3.74 -1.49,2.48 -2.32,7.28 -2.41,14.44l0 7.81c0,6.24 0.31,10.61 0.92,13.09 0.62,2.49 1.64,4.32 3.03,5.47 1.42,1.16 3.42,1.73 6.03,1.73z"/>
   <path id="_18" class="fil3" d="M1378.97 1207.91l0 18.8 10.24 0 0 15.04 -10.24 0 0 37.94c0,3.01 0.41,5.09 1.23,6.22 0.84,1.13 2.41,1.68 4.77,1.68 1.93,0 3.52,-0.17 4.72,-0.51l-0.12 15.52c-3.4,1.28 -7.07,1.91 -11.02,1.91 -12.92,0 -19.43,-7.4 -19.57,-22.18l0 -40.59 -8.82 0 0 -15.04 8.82 0 0 -18.8 19.98 0z"/>
   <path id="_19" class="fil3" d="M1437.74 1296.1c-4.14,5.62 -9.72,8.42 -16.68,8.42 -7.01,0 -12.32,-2.41 -15.96,-7.23 -3.62,-4.82 -5.42,-11.86 -5.42,-21.09l0 -49.49 19.98 0 0 50.02c0.09,7.44 2.55,11.16 7.4,11.16 4.58,0 7.88,-1.98 9.91,-5.93l0 -55.25 20.13 0 0 76.37 -18.8 0 -0.55 -6.97z"/>
   <path id="_20" class="fil3" d="M1509.11 1245.92l-6.66 -0.55c-5.44,0 -9.16,2.41 -11.09,7.21l0 50.5 -20.06 0 0 -76.37 18.87 0 0.56 8.27c3.16,-6.48 7.52,-9.71 13.06,-9.71 2.27,0 4.1,0.31 5.52,0.92l-0.22 19.74z"/>
   <path id="_21" class="fil3" d="M1548.89 1304.52c-10.27,0 -18.27,-3.06 -24.03,-9.18 -5.74,-6.12 -8.61,-14.87 -8.61,-26.28l0 -6.07c0,-12.05 2.63,-21.36 7.9,-27.91 5.28,-6.53 12.82,-9.81 22.68,-9.81 9.59,0 16.83,3.06 21.67,9.21 4.85,6.15 7.33,15.23 7.42,27.26l0 9.81 -39.77 0c0.29,5.71 1.54,9.88 3.74,12.53 2.22,2.63 5.64,3.95 10.25,3.95 6.7,0 12.27,-2.31 16.75,-6.96l7.83 12.07c-2.46,3.4 -6,6.15 -10.68,8.24 -4.65,2.1 -9.71,3.14 -15.16,3.14zm-12.59 -46.86l19.98 0 0 -1.86c-0.1,-4.6 -0.84,-8.1 -2.27,-10.48 -1.4,-2.39 -3.86,-3.57 -7.33,-3.57 -3.49,0 -6.03,1.25 -7.59,3.79 -1.59,2.51 -2.51,6.56 -2.8,12.13z"/>
   <polygon id="_22" class="fil3" points="1642.26,1285.86 1678.71,1285.86 1678.71,1303.07 1621.51,1303.07 1621.51,1200.24 1642.26,1200.24 "/>
   <path id="_23" class="fil3" d="M1712.94 1207.91l0 18.8 10.24 0 0 15.04 -10.24 0 0 37.94c0,3.01 0.41,5.09 1.23,6.22 0.84,1.13 2.41,1.68 4.77,1.68 1.93,0 3.52,-0.17 4.72,-0.51l-0.12 15.52c-3.4,1.28 -7.07,1.91 -11.02,1.91 -12.92,0 -19.43,-7.4 -19.57,-22.18l0 -40.59 -8.82 0 0 -15.04 8.82 0 0 -18.8 19.98 0z"/>
   <path id="_24" class="fil3" d="M1731.5 1262.55c0,-12.51 2.09,-21.86 6.34,-28.03 4.24,-6.17 10.41,-9.26 18.51,-9.26 5.88,0 10.77,2.53 14.68,7.62l0 -38.28 20.13 0 0 108.5 -18.15 0 -0.92 -7.76c-4.09,6.12 -9.37,9.18 -15.81,9.18 -8,0 -14.13,-3.06 -18.32,-9.18 -4.22,-6.12 -6.39,-15.11 -6.46,-26.97l0 -5.81zm20.05 5.06c0,7.52 0.8,12.8 2.39,15.79 1.61,2.99 4.31,4.48 8.12,4.48 3.95,0 6.94,-1.76 8.96,-5.31l0 -34.9c-1.98,-3.76 -4.94,-5.64 -8.89,-5.64 -3.66,0 -6.36,1.49 -8.05,4.46 -1.69,2.96 -2.53,8.24 -2.53,15.81l0 5.31z"/>
   <path id="_25" class="fil3" d="M1807.45 1292.83c0,-3.18 1.08,-5.83 3.21,-7.91 2.14,-2.07 4.94,-3.11 8.39,-3.11 3.33,0 6.1,1.03 8.31,3.09 2.22,2.05 3.33,4.7 3.33,7.93 0,3.3 -1.11,5.95 -3.35,7.95 -2.24,2 -5.01,3.01 -8.29,3.01 -3.35,0 -6.12,-1.01 -8.32,-3.03 -2.17,-2.03 -3.28,-4.68 -3.28,-7.93z"/>
   <path class="fil4" d="M1251.62 90.8c8.21,0 16.22,2.1 24.06,6.33 7.81,4.2 13.92,10.25 18.28,18.08 4.36,7.86 6.55,16.05 6.55,24.55 0,8.43 -2.14,16.55 -6.46,24.32 -4.29,7.79 -10.31,13.83 -18.08,18.13 -7.77,4.32 -15.89,6.46 -24.35,6.46 -8.47,0 -16.6,-2.14 -24.36,-6.46 -7.77,-4.29 -13.81,-10.34 -18.13,-18.13 -4.32,-7.77 -6.49,-15.89 -6.49,-24.32 0,-8.5 2.19,-16.69 6.58,-24.55 4.4,-7.83 10.51,-13.88 18.33,-18.08 7.83,-4.23 15.85,-6.33 24.08,-6.33zm0 8.1c-6.88,0 -13.59,1.77 -20.09,5.29 -6.51,3.52 -11.6,8.56 -15.27,15.11 -3.68,6.55 -5.51,13.37 -5.51,20.45 0,7.06 1.81,13.81 5.42,20.27 3.6,6.47 8.65,11.51 15.13,15.12 6.49,3.61 13.26,5.42 20.32,5.42 7.04,0 13.81,-1.81 20.3,-5.42 6.49,-3.61 11.53,-8.65 15.12,-15.12 3.58,-6.46 5.38,-13.21 5.38,-20.27 0,-7.08 -1.84,-13.9 -5.49,-20.45 -3.65,-6.55 -8.74,-11.59 -15.27,-15.11 -6.53,-3.52 -13.21,-5.29 -20.03,-5.29zm-21.49 67.86l0 -52.59 18.1 0c6.2,0 10.67,0.49 13.43,1.46 2.79,0.97 4.98,2.65 6.64,5.09 1.64,2.41 2.46,4.98 2.46,7.7 0,3.83 -1.37,7.19 -4.14,10.03 -2.74,2.85 -6.4,4.45 -10.96,4.8 1.86,0.78 3.36,1.71 4.47,2.79 2.13,2.06 4.71,5.53 7.79,10.42l6.42 10.29 -10.31 0 -4.69 -8.28c-3.68,-6.53 -6.66,-10.62 -8.92,-12.26 -1.55,-1.19 -3.81,-1.79 -6.79,-1.77l-5 0 0 22.31 -8.5 0zm8.5 -29.62l10.31 0c4.93,0 8.3,-0.73 10.09,-2.19 1.79,-1.46 2.7,-3.41 2.7,-5.8 0,-1.55 -0.44,-2.94 -1.3,-4.16 -0.87,-1.24 -2.06,-2.14 -3.59,-2.74 -1.55,-0.6 -4.38,-0.91 -8.54,-0.91l-9.67 0 0 15.8z"/>
  </g>
  <rect class="fil5" x="0" y="-0" width="1980.49" height="1368.22"/>
 </g>
</svg>
